<?xml version="1.0" encoding="UTF-8"?>
<svg id="Alt._Rev" data-name="Alt. Rev" xmlns="http://www.w3.org/2000/svg" viewBox="0 0 1280 310">
  <defs>
    <style>
      .cls-1 {
        fill: #fff;
      }

      .cls-1, .cls-2 {
        stroke-width: 0px;
      }

      .cls-2 {
        fill: #3a638d;
      }
    </style>
  </defs>
  <rect class="cls-2" x="750" y="0" width="530" height="310" rx="20.54" ry="20.54"/>
  <g>
    <path class="cls-2" d="M159.93,228.56h-24.99v-85.89H25.05v85.89H.06V40.67h24.99v81.6h109.89V40.67h24.99v187.89Z"/>
    <path class="cls-2" d="M300.37,86.31c25.26,0,37.08,15.57,37.08,38.92v81.86c0,14.5-5.64,21.47-22.3,21.47h-63.41c-26.06,0-37.08-13.96-37.08-43.48s11.02-43.21,37.08-43.21h63.14v-16.91c0-12.08-5.91-20.4-20.15-20.4h-69.32v-18.25h74.96ZM256.04,160.12c-13.97,0-17.73,9.66-17.73,24.96s3.76,25.23,17.73,25.23h51.32c5.11,0,7.52-2.95,7.52-7.25v-42.95h-58.84Z"/>
    <path class="cls-2" d="M394.06,109.66c0-14.76,6.18-23.35,21.76-23.35h51.05c30.9,0,48.1,13.42,48.1,46.16v96.09h-22.57v-92.06c0-19.33-6.99-31.94-28.48-31.94h-38.96c-5.37,0-8.33,1.88-8.33,9.13v114.88h-22.57v-118.91Z"/>
    <path class="cls-2" d="M657.91,86.31c25.26,0,37.08,15.57,37.08,38.92v81.86c0,14.5-5.64,21.47-22.3,21.47h-63.41c-26.06,0-37.08-13.96-37.08-43.48s11.02-43.21,37.08-43.21h63.14v-16.91c0-12.08-5.91-20.4-20.15-20.4h-69.32v-18.25h74.97ZM613.58,160.12c-13.97,0-17.73,9.66-17.73,24.96s3.76,25.23,17.73,25.23h51.32c5.11,0,7.52-2.95,7.52-7.25v-42.95h-58.84Z"/>
    <path class="cls-1" d="M818.55,273.57h-13.97V106.08c0-16.11,10.75-20.4,22.57-20.4h36.27c45.68,0,58.31,25.23,58.31,70.86s-12.63,71.4-58.31,71.4h-44.87v45.63ZM818.55,215.32h44.87c37.62,0,43.8-23.89,43.8-58.78s-6.18-58.25-43.8-58.25h-36.27c-5.64,0-8.6,1.61-8.6,9.66v107.36Z"/>
    <path class="cls-1" d="M1038.07,228.56c-48.36,0-60.19-22.82-60.19-71.13,0-45.63,11.82-71.13,60.19-71.13h42.99v-45.63h13.97v167.22c0,12.08-2.42,20.67-19.35,20.67h-37.62ZM1038.07,98.92c-37.62,0-45.68,18.25-45.68,58.51,0,42.94,8.06,58.51,45.68,58.51h32.24c9.67,0,10.75-3.22,10.75-12.08v-104.95h-42.99Z"/>
    <path class="cls-1" d="M1173.77,226.06V96.42h-21.23v-12.61h21.23c0-34.36,19.08-47.24,52.66-47.24v12.89c-26.33,0-38.42,7.25-38.42,34.36h38.42v12.61h-38.42v129.64h-14.24Z"/>
  </g>
</svg>