<?xml version="1.0" encoding="UTF-8"?>
<svg id="Alt._Rev" data-name="Alt. Rev" xmlns="http://www.w3.org/2000/svg" viewBox="0 0 1024 1024">
  <defs>
    <style>
      .cls-1 {
        fill: #e3f1ff;
        stroke-width: 0px;
      }
    </style>
  </defs>
  <path class="cls-1" d="M612.21,62.05h-110v51h110v-51h0ZM409.21,62.05h-110v51h110v-51h0ZM208.75,75.58c-.6.37-1.19.75-1.78,1.14,0,0,0,0,0,0-.19.13-.38.25-.57.38,0,0,0,0-.01,0-.03.02-.06.04-.08.06,0,0-.01,0-.02.01-.03.02-.06.04-.08.06,0,0,0,0-.01,0-.12.08-.25.16-.37.25,0,0,0,0-.01,0-.03.02-.06.04-.08.06,0,0-.01,0-.02.01-.03.02-.05.04-.08.05,0,0-.01,0-.02.01-.03.02-.06.04-.08.06,0,0,0,0,0,0-.12.08-.25.17-.37.25,0,0,0,0-.01,0-.03.02-.05.04-.08.06,0,0-.01.01-.02.02-.03.02-.05.04-.08.05,0,0-.01,0-.02.01-.12.08-.23.16-.35.24,0,0-.02.01-.02.02-.02.02-.05.03-.07.05-.01,0-.02.01-.03.02-.02.02-.05.03-.07.05-.01,0-.02.01-.03.02-.02.02-.05.03-.07.05,0,0-.02.01-.03.02-.08.06-.17.12-.25.18,0,0-.01,0-.02.01-.02.02-.04.03-.06.05-.01,0-.03.02-.04.03-.02.01-.04.03-.06.04-.01,0-.03.02-.04.03-.02.02-.04.03-.06.05-.01,0-.02.02-.04.03-.02.02-.04.03-.07.05-.01,0-.02.02-.03.02-.07.05-.15.11-.23.16-.01,0-.02.02-.03.02-.02.01-.04.03-.06.04-.01.01-.03.02-.04.03-.02.01-.04.03-.06.04-.02.01-.03.02-.05.04-.02.01-.04.03-.06.04-.01.01-.03.02-.05.03-.02.01-.04.03-.06.04-.01.01-.03.02-.04.03-.04.03-.07.05-.11.08-.01.01-.03.02-.04.03-.02.01-.03.03-.05.04-.02.01-.03.02-.05.03-.02.01-.04.03-.05.04-.02.01-.03.02-.05.04-.02.01-.03.03-.05.04-.02.01-.03.02-.05.03-.02.01-.04.03-.05.04-.02.01-.03.03-.05.04-.02.01-.03.03-.05.04-.02.01-.04.03-.06.04-.03.02-.06.04-.09.07-.02.01-.04.03-.05.04-.02.01-.03.03-.05.04-.02.01-.04.03-.05.04-.02.01-.03.02-.05.04-.02.01-.03.03-.05.04-.02.01-.03.02-.05.04-.02.01-.04.03-.05.04-.02.01-.03.02-.05.04-.02.01-.04.03-.06.04-.01.01-.03.02-.04.03-.03.02-.06.05-.1.07-.02.01-.03.02-.04.03-.02.01-.04.03-.06.04-.02.01-.03.02-.05.04-.02.01-.04.03-.05.04-.02.01-.03.02-.05.04-.02.01-.04.03-.06.04-.02.01-.03.02-.04.03-.02.01-.04.03-.06.04-.01.01-.03.02-.04.03-.02.02-.05.04-.07.06,0,0-.02.01-.03.02-.03.03-.07.05-.1.08,0,0-.02.02-.03.02-.02.02-.05.04-.07.05-.01.01-.03.02-.04.03-.02.02-.04.03-.06.05-.02.01-.03.02-.04.03-.02.02-.04.03-.06.05-.01.01-.02.02-.04.03-.02.02-.05.04-.07.06,0,0-.02.02-.03.02-.07.05-.13.11-.2.16,0,0-.02.01-.03.02-.03.02-.05.04-.08.06,0,0-.02.01-.03.02-.02.02-.05.04-.07.06,0,0-.02.02-.03.03-.02.02-.05.04-.07.06,0,0-.02.02-.03.02-.03.02-.05.04-.08.06,0,0-.01.01-.02.02-.03.03-.07.05-.1.08,0,0,0,0,0,0-.03.03-.06.05-.09.08-.01,0-.02.01-.03.02-.02.02-.05.04-.07.06-.01,0-.02.01-.03.02-.02.02-.05.04-.07.06-.01,0-.02.01-.03.02-.03.02-.05.04-.08.06,0,0-.01.01-.02.02-.07.06-.14.11-.2.17,0,0,0,0,0,0-.03.02-.06.05-.09.07,0,0-.02.02-.03.02-.02.02-.05.04-.07.06,0,0-.02.01-.03.02-.03.02-.05.04-.08.06,0,0-.02.01-.02.02-.03.02-.06.05-.09.07,0,0,0,0,0,0-.07.06-.14.11-.2.17,0,0-.01,0-.02.01-.03.02-.06.05-.08.07,0,0-.02.01-.03.02-.03.02-.05.04-.07.06,0,0-.02.01-.03.02-.03.02-.05.04-.07.06,0,0-.02.01-.03.02-.03.03-.06.05-.09.08h0c-.07.06-.14.12-.2.18,0,0-.01.01-.02.02-.03.02-.05.05-.08.07,0,0-.02.01-.02.02-.03.02-.05.05-.08.07,0,0-.01.01-.02.02-.03.02-.06.05-.08.07,0,0,0,0-.01.01-.1.09-.2.17-.3.26,0,0,0,0-.01.01-.03.02-.06.05-.09.08,0,0-.01.01-.02.02-.03.02-.06.05-.08.07,0,0-.01,0-.02.01-.03.03-.06.05-.09.08,0,0,0,0,0,0-.07.06-.13.12-.2.18h0s-.06.06-.09.09c0,0-.01,0-.01.01-.03.02-.05.05-.08.07,0,0-.01.01-.02.02-.03.02-.06.05-.08.07,0,0,0,0-.01.01-.1.09-.2.18-.3.27,0,0,0,0-.01,0-.03.03-.06.05-.09.08,0,0,0,0-.01.01-.03.03-.06.05-.09.08,0,0-.01,0-.01.01-.03.03-.06.05-.09.08,0,0,0,0,0,0-.1.09-.2.18-.3.27,0,0,0,0,0,0-.03.03-.06.06-.09.08,0,0,0,0-.01.01-.03.03-.06.05-.09.08,0,0,0,0,0,0-.13.12-.26.24-.39.36,0,0,0,0-.01.01-.03.03-.06.05-.08.08,0,0,0,0-.01.01-.03.03-.06.06-.09.08,0,0,0,0,0,0-.13.12-.26.25-.39.37,0,0,0,0,0,0-.03.03-.06.06-.09.08,0,0,0,0-.01.01-.03.03-.06.06-.09.09,0,0,0,0,0,0-.1.09-.2.19-.29.28,0,0,0,0,0,0-.03.03-.06.06-.09.09,0,0,0,0-.01.01-.03.03-.06.06-.09.09,0,0,0,0,0,0-.16.16-.32.31-.48.47,0,0,0,0,0,0-.03.03-.06.06-.09.09h0c-.13.13-.26.26-.39.38h0s-.06.06-.09.09h0c-.16.17-.32.33-.48.49h0c-.19.2-.38.39-.57.59h0s-.06.07-.09.1h0c-.13.13-.25.26-.38.39,0,0,0,0,0,0-.19.2-.37.39-.56.59h0c-.19.2-.37.4-.56.6h0c-.37.41-.74.81-1.1,1.22h0c-.15.17-.3.34-.45.52h0c-.33.38-.66.76-.98,1.14,0,0,0,0,0,0-.5.59-.99,1.19-1.48,1.8h0c-.2.25-.4.5-.6.75h0c-.28.36-.56.72-.84,1.09h0c-.17.22-.33.44-.49.66,0,0,0,0,0,0-.03.04-.05.07-.08.11,0,0,0,0,0,0-.11.15-.22.29-.32.44,0,0,0,0,0,0-.03.03-.05.07-.08.1,0,0,0,0,0,0-.03.04-.05.07-.08.11,0,0,0,0,0,0-.08.11-.16.22-.24.33h0s-.05.07-.08.11c0,0,0,0,0,0-.02.03-.05.07-.07.1,0,0,0,0,0,0-.11.15-.21.3-.32.44h0s-.05.08-.08.11c0,0,0,0,0,0-.02.04-.05.07-.08.11,0,0,0,0,0,0-.1.15-.21.3-.31.45,0,0,0,0,0,0-.02.04-.05.07-.07.11,0,0,0,0,0,0-.02.04-.05.07-.07.11,0,0,0,0,0,0-.1.15-.2.3-.31.45,0,0,0,0,0,0-.02.04-.05.07-.07.11,0,0,0,0,0,0-.13.19-.25.38-.38.57,0,0,0,0,0,0-.02.04-.05.07-.07.11,0,0,0,0,0,0-.1.15-.2.3-.3.46,0,0,0,0,0,0-.02.03-.05.07-.07.1,0,0,0,0,0,.01-.02.04-.05.07-.07.11h0c-.1.15-.2.31-.3.46,0,0,0,0,0,0-.02.04-.05.08-.07.11,0,0,0,0,0,0-.1.16-.2.31-.29.46h0s-.05.08-.07.11c0,0,0,0,0,0-.02.04-.04.07-.07.11,0,0,0,0,0,0-.1.15-.19.31-.29.46,0,0,0,.01,0,.02-.02.03-.04.07-.06.1,0,0,0,0,0,.02-.02.03-.04.07-.06.1,0,0,0,0,0,.01-.07.12-.14.23-.21.35,0,0,0,0,0,0-.02.04-.04.07-.06.11,0,0,0,.01-.01.02-.02.03-.04.07-.06.1,0,0,0,.01,0,.02-.02.03-.04.07-.06.1,0,0,0,0,0,.01-.07.12-.14.23-.21.35,0,0,0,0,0,0-.02.03-.04.07-.06.1,0,0,0,.01-.01.02-.02.03-.04.07-.06.1,0,0,0,.01,0,.02-.02.04-.04.07-.07.11h0c-.05.08-.09.16-.14.24,0,0,0,0,0,0-.02.04-.04.07-.06.11,0,0,0,0,0,.01-.02.03-.04.07-.06.1,0,0,0,.01,0,.02-.02.03-.04.07-.06.1,0,0,0,0,0,.01-.07.12-.14.24-.2.35,0,0,0,0,0,.01-.02.04-.04.07-.06.1,0,0,0,.01-.01.02-.02.03-.04.06-.05.1,0,0,0,.01-.01.02-.02.03-.04.07-.06.1,0,0,0,0,0,.01-.07.12-.13.24-.2.35,0,0,0,.01,0,.02-.02.03-.04.06-.05.1,0,0-.01.02-.01.02-.02.03-.03.06-.05.09,0,0,0,.01-.01.02-.02.04-.04.07-.06.11,0,0,0,0,0,0-.04.08-.09.16-.13.24,0,0,0,0,0,0-.02.04-.04.07-.06.11,0,0,0,.01-.01.02-.02.03-.03.06-.05.1,0,0,0,.02-.01.02-.02.03-.03.06-.05.09,0,0,0,.02-.01.02-.06.12-.13.24-.19.36,0,0,0,.01,0,.02-.02.03-.03.06-.05.1,0,0-.01.02-.02.03-.02.03-.03.06-.05.09,0,0,0,.02-.01.03-.02.03-.03.07-.05.1,0,0,0,.01-.01.02-.06.12-.13.24-.19.36,0,0,0,.01,0,.02-.02.03-.04.07-.05.1,0,0,0,.02-.01.03-.02.03-.03.06-.05.1,0,0,0,.01-.01.02-.02.03-.03.07-.05.1,0,0,0,.01,0,.02-.04.08-.08.16-.12.24,0,0,0,0,0,.01-.02.04-.04.07-.05.11,0,0,0,.01-.01.02-.02.03-.03.06-.05.09,0,0-.01.02-.02.03-.02.03-.03.06-.05.09,0,0,0,.02-.01.03-.02.03-.04.07-.05.1,0,0,0,.01,0,.01-.04.08-.08.16-.12.24,0,.01,0,.02-.01.03-.02.03-.03.06-.05.09,0,.01-.01.02-.02.03-.01.03-.03.06-.04.09,0,0-.01.02-.01.03-.02.03-.03.06-.05.1,0,0,0,.02-.01.02-.02.04-.04.07-.05.11,0,0,0,0,0,.01-.02.04-.04.08-.06.12,0,0,0,.01,0,.01-.02.04-.03.07-.05.1,0,.01-.01.02-.02.03-.01.03-.03.06-.04.09,0,.01-.01.03-.02.04-.01.03-.03.05-.04.08,0,.01-.01.03-.02.04-.01.03-.03.06-.04.09,0,0,0,.02-.01.03-.04.08-.08.16-.12.24,0,0,0,.02-.01.03-.01.03-.03.06-.04.09,0,.01-.01.03-.02.04-.01.03-.03.05-.04.08,0,.01-.01.02-.02.04-.01.03-.03.06-.04.08,0,.01-.01.02-.02.03-.02.03-.03.06-.05.1,0,0,0,.02-.01.02-.04.08-.08.16-.11.24,0,.01-.01.02-.02.03-.01.03-.03.06-.04.09,0,.01-.01.03-.02.04-.01.03-.02.05-.04.08,0,.01-.01.03-.02.04-.01.03-.03.05-.04.08,0,.01-.01.03-.02.04-.02.03-.03.07-.05.1,0,0,0,.01,0,.02-.02.04-.04.08-.06.12,0,0,0,.02-.01.03-.01.03-.03.06-.04.1,0,.01-.01.03-.02.04-.01.03-.02.05-.04.08,0,.02-.01.03-.02.05-.01.03-.02.05-.04.08,0,.01-.01.03-.02.04-.01.03-.03.06-.04.08,0,.01-.01.02-.02.04-.02.04-.03.08-.05.11,0,0,0,0,0,0-.02.04-.04.08-.05.12,0,.01,0,.02-.01.03-.01.03-.03.06-.04.09,0,.01,0,.02-.02.04-.01.03-.03.06-.04.09,0,.01-.01.03-.02.04-.01.03-.02.06-.04.08,0,.01-.01.02-.02.04-.01.03-.03.06-.04.09,0,.01,0,.02-.01.03-.04.08-.07.16-.11.24,0,.01-.01.03-.02.04-.01.03-.02.06-.04.08,0,.01-.01.03-.02.04-.01.03-.02.05-.04.08,0,.01-.01.03-.02.04-.01.03-.02.06-.04.09,0,.01-.01.02-.02.04-.01.03-.03.07-.04.1,0,0,0,.02,0,.02-.02.04-.04.08-.05.12,0,0,0,.02,0,.02-.01.03-.03.07-.04.1,0,.02-.01.03-.02.04-.01.03-.02.05-.03.08,0,.01-.01.03-.02.04-.01.03-.02.06-.04.08,0,.01-.01.03-.02.04-.01.03-.03.06-.04.09,0,0,0,.02-.01.03-.03.08-.07.17-.1.25,0,0,0,.01,0,.02-.01.03-.03.07-.04.1,0,.01-.01.02-.02.04-.01.03-.02.06-.04.08,0,.01-.01.03-.02.04-.01.03-.02.05-.03.08,0,.01-.01.03-.02.04-.01.03-.02.06-.04.09,0,0,0,.02-.01.03-.02.04-.03.08-.05.12,0,0,0,0,0,0-.02.04-.03.08-.05.12,0,.01-.01.03-.01.04-.01.03-.02.06-.03.08,0,.02-.01.03-.02.05-.01.03-.02.05-.03.08,0,.01-.01.03-.02.04-.01.03-.02.06-.03.08,0,.01-.01.03-.02.04-.01.03-.03.06-.04.09,0,0,0,.02-.01.03-.02.04-.03.08-.05.12,0,.01,0,.02-.01.04-.01.03-.02.06-.04.09,0,.02-.01.03-.02.04-.01.03-.02.05-.03.08,0,.02-.01.03-.02.05,0,.02-.02.05-.03.08,0,.02-.01.03-.02.05-.01.03-.02.05-.03.08,0,.01-.01.03-.02.04-.01.03-.03.07-.04.1,0,0,0,.01,0,.02-.02.04-.03.08-.05.12,0,.01-.01.03-.02.04-.01.03-.02.05-.03.08,0,.02-.01.03-.02.05,0,.02-.02.05-.03.07,0,.02-.01.03-.02.05,0,.02-.02.05-.03.07,0,.02-.01.04-.02.05,0,.03-.02.05-.03.08,0,.02-.01.03-.02.05-.02.04-.03.08-.05.12,0,0,0,.01,0,.02-.01.03-.03.07-.04.1,0,.02-.01.03-.02.05,0,.02-.02.05-.03.08,0,.02-.01.03-.02.05,0,.02-.02.05-.03.08,0,.02-.01.03-.02.05,0,.03-.02.05-.03.08,0,.02-.01.03-.02.05,0,.03-.02.05-.03.08,0,.01-.01.03-.02.04-.01.04-.03.08-.04.12,0,.01-.01.03-.02.04-.01.03-.02.06-.03.08,0,.02-.01.03-.02.05,0,.02-.02.05-.03.07,0,.02-.01.04-.02.06,0,.02-.02.05-.03.07,0,.02-.01.04-.02.06,0,.02-.02.05-.03.07,0,.02-.01.03-.02.05-.01.03-.02.06-.03.09,0,.02-.01.03-.02.04-.01.04-.03.07-.04.11,0,.02-.01.04-.02.06,0,.02-.02.04-.02.07,0,.02-.01.04-.02.06,0,.02-.02.04-.02.07,0,.02-.01.04-.02.06,0,.02-.02.05-.02.07,0,.02-.01.04-.02.05,0,.03-.02.05-.03.08,0,.02-.01.03-.02.05-.01.04-.03.08-.04.12,0,0,0,.02,0,.02-.01.03-.02.07-.04.1,0,.01-.01.03-.02.05,0,.03-.02.05-.03.08,0,.02-.01.04-.02.05,0,.02-.02.05-.03.07,0,.02-.01.04-.02.05,0,.02-.02.05-.02.07,0,.02-.01.04-.02.06,0,.03-.02.05-.03.08,0,.01-.01.03-.02.05-.01.04-.03.08-.04.12,0,.01,0,.03-.01.04,0,.03-.02.06-.03.09,0,.02-.01.03-.02.05,0,.03-.02.05-.03.07,0,.02-.01.04-.02.06,0,.02-.02.05-.02.07,0,.02-.01.04-.02.05,0,.03-.02.05-.03.08,0,.02-.01.03-.02.05-.01.03-.02.07-.03.1,0,0,0,.02,0,.03-.01.04-.03.08-.04.12,0,.01,0,.03-.01.04,0,.03-.02.06-.03.08,0,.01-.01.03-.02.05,0,.03-.02.05-.03.08,0,.02-.01.03-.02.05,0,.03-.02.05-.02.08,0,.02-.01.03-.02.05,0,.03-.02.05-.03.08,0,.02-.01.03-.02.05-.01.04-.03.08-.04.12,0,0,0,.02,0,.03-.01.03-.02.07-.03.1,0,.02-.01.03-.02.05,0,.03-.02.05-.02.08,0,.02-.01.03-.02.05,0,.02-.01.05-.02.07,0,.02-.01.04-.02.06,0,.02-.02.05-.02.07,0,.02-.01.04-.02.05,0,.03-.02.05-.03.08,0,.01,0,.03-.01.04-.01.04-.03.08-.04.12,0,.01,0,.03-.01.04,0,.03-.02.06-.03.09,0,.02-.01.03-.02.05,0,.02-.02.05-.02.07,0,.02-.01.04-.02.06,0,.02-.01.05-.02.07,0,.02-.01.04-.02.06,0,.03-.02.05-.02.08,0,.02,0,.03-.01.05,0,.03-.02.06-.03.09,0,.02-.01.03-.02.05-.01.04-.02.08-.03.12,0,.01,0,.03-.01.05,0,.03-.02.05-.02.08,0,.02-.01.04-.02.06,0,.02-.01.05-.02.07,0,.02-.01.04-.02.06,0,.02-.01.05-.02.07,0,.02-.01.04-.02.06,0,.03-.02.05-.02.08,0,.02,0,.03-.01.05-.01.04-.02.07-.03.11,0,.01,0,.02-.01.04,0,.03-.02.07-.03.1,0,.02,0,.03-.01.05,0,.03-.01.05-.02.08,0,.02-.01.04-.02.06,0,.02-.01.05-.02.07,0,.02-.01.04-.02.06,0,.02-.01.05-.02.07,0,.02-.01.04-.02.06,0,.03-.02.05-.02.08,0,.01,0,.03-.01.05-.01.04-.02.08-.03.13,0,.01,0,.02,0,.03,0,.03-.02.06-.03.1,0,.01,0,.03-.01.04,0,.03-.02.06-.02.08,0,.02,0,.04-.01.05,0,.03-.01.05-.02.08,0,.02,0,.03-.01.05,0,.03-.01.05-.02.08,0,.02,0,.04-.01.05,0,.03-.02.06-.02.09,0,.01,0,.02,0,.04-.01.04-.02.08-.03.13,0,.01,0,.03-.01.05,0,.03-.01.06-.02.08,0,.02,0,.03-.01.05,0,.03-.01.05-.02.08,0,.02,0,.04-.01.06,0,.02-.01.05-.02.08,0,.02,0,.04-.01.05,0,.03-.01.06-.02.08,0,.01,0,.03-.01.05-.01.04-.02.08-.03.12,0,0,0,.02,0,.03,0,.04-.02.07-.03.11,0,.02,0,.03-.01.05,0,.03-.01.05-.02.08,0,.02,0,.03-.01.05,0,.03-.01.05-.02.08,0,.02,0,.03-.01.05,0,.03-.01.06-.02.08,0,.02,0,.03-.01.05,0,.03-.01.06-.02.09,0,.01,0,.03-.01.05-.01.04-.02.09-.03.13,0,0,0,.02,0,.03,0,.03-.02.07-.02.1,0,.02,0,.03-.01.05,0,.03-.01.05-.02.08,0,.02,0,.04-.01.05,0,.03-.01.05-.02.08,0,.02,0,.04-.01.06,0,.03-.01.05-.02.08,0,.01,0,.03-.01.05,0,.03-.02.06-.02.1,0,.01,0,.02,0,.04-.01.04-.02.09-.03.13,0,.01,0,.03,0,.04,0,.03-.01.06-.02.09,0,.02,0,.03-.01.05,0,.03-.01.06-.02.08,0,.02,0,.03-.01.05,0,.03-.01.06-.02.08,0,.02,0,.03-.01.05,0,.03-.01.06-.02.09,0,.01,0,.03-.01.04-.01.04-.02.09-.03.13h0s-.03.15-.1.42h0s0,.04-.01.06h0c-.03.12-.06.26-.1.42h0s0,.02,0,.02v.03s-.02.04-.02.06h0s-.01.05-.02.07h0s-.01.06-.02.09h0s0,.02,0,.03l-.03.11s0,.01,0,.02v.03s0,0-.01.01l-8.46,36.67,49.69,11.47,8.78-38.05c2.35-10.19,8.55-18.84,17.44-24.37l-26.91-43.32h0ZM138.83,260.47l-.04.15h0s-24.71,107.03-24.71,107.03l49.69,11.47,24.74-107.18-49.69-11.47h0ZM93.17,458.26l-7.6,32.93s0,.04-.01.06l-.02.07s-.02.07-.03.11v.03s-.02.03-.02.05l-.04.18c-.01.05-.02.11-.04.16v.04s-.03.07-.04.11v.05s-.02.03-.02.04l-.03.14s0,0,0,.01l-.02.08c-7.24,31.38-16.87,73.1-16.87,73.1l49.69,11.47,24.74-107.18-49.69-11.47h0ZM47.51,656.06l-11.55,50.05s0,.01,0,.02l-.03.14s0,.03-.01.05l-.08.33s0,.03,0,.04l-.02.11c-.02.08-.04.16-.06.24l-.04.18c-6.37,27.58-12.93,56.02-12.93,56.02l49.69,11.47,24.74-107.18-49.69-11.47h0ZM1.88,853.87c-1.35,6.56-1.95,13.08-1.87,19.47,0,0,0,0,0,0,0,.07,0,.14,0,.21,0,0,0,0,0,.01,0,.03,0,.06,0,.1,0,0,0,0,0,0,0,.07,0,.14,0,.21,0,0,0,0,0,0,0,.03,0,.07,0,.1,0,0,0,0,0,0,0,.04,0,.07,0,.11,0,0,0,0,0,0,0,.03,0,.06,0,.1,0,0,0,.01,0,.02,0,.07,0,.14,0,.2,0,0,0,.02,0,.03,0,.03,0,.05,0,.08,0,0,0,.01,0,.02,0,.03,0,.07,0,.1,0,0,0,0,0,0,0,.03,0,.06,0,.09,0,.01,0,.02,0,.03,0,.03,0,.05,0,.07,0,0,0,.02,0,.03,0,.03,0,.07,0,.1,0,0,0,.01,0,.02,0,.03,0,.05,0,.08,0,.01,0,.02,0,.03,0,.03,0,.05,0,.08,0,0,0,.01,0,.02,0,.03,0,.06,0,.09,0,.01,0,.02,0,.04,0,.02,0,.04,0,.06,0,.01,0,.03,0,.04,0,.02,0,.05,0,.07,0,.02,0,.03,0,.04,0,.02,0,.04,0,.07,0,.01,0,.03,0,.04,0,.02,0,.04,0,.06,0,.02,0,.03,0,.04,0,.03,0,.06,0,.09,0,.01,0,.03,0,.04,0,.02,0,.04,0,.06,0,.01,0,.03,0,.05,0,.02,0,.04,0,.06,0,.01,0,.03,0,.04,0,.03,0,.06,0,.09,0,.01,0,.03,0,.05,0,.02,0,.03,0,.05,0,.02,0,.03,0,.05,0,.02,0,.04,0,.06,0,.02,0,.04,0,.06,0,.02,0,.04,0,.06,0,.02,0,.03,0,.04,0,.02,0,.03,0,.05,0,.02,0,.03,0,.05,0,.02,0,.03,0,.05,0,.03,0,.05,0,.08,0,.01,0,.03,0,.05,0,.02,0,.03,0,.05,0,.01,0,.03,0,.04,0,.06,0,.13.01.19,0,.01,0,.02,0,.04,0,.02,0,.04,0,.06,0,0,0,.02,0,.03,0,.04,0,.08,0,.12,0,0,0,.01,0,.02,0,.02,0,.04,0,.06,0,.01,0,.02,0,.03,0,.02,0,.04,0,.06,0,0,0,0,0,0,0,.04,0,.09,0,.14,0,0,0,.02,0,.02,0,.02,0,.04,0,.06,0,.01,0,.02,0,.03,0,.07,0,.14.01.21,0,0,0,0,0,.01,0,.02,0,.05,0,.07,0,0,0,.01,0,.02,0,.07,0,.14.01.21,0,0,0,.01,0,.02,0,.02,0,.05,0,.07h0c0,.08.01.16.02.24,0,0,0,0,0,0,0,.08.01.15.02.23,0,0,0,0,0,0,0,.11.02.21.02.31,0,0,0,0,0,0,0,.11.02.21.03.31,0,0,0,0,0,0,.52,6.24,1.69,12.32,3.44,18.18,0,0,0,0,0,0,.03.1.06.19.09.29,0,0,0,0,0,0,.05.17.1.34.16.51,0,0,0,0,0,0,0,.02.01.05.02.07,0,0,0,0,0,0,.02.05.03.09.04.14,0,0,0,0,0,0,0,.02.01.05.02.07,0,0,0,0,0,.01.02.07.04.14.07.21,0,0,0,0,0,0,0,.02.01.05.02.07,0,0,0,0,0,.01.02.06.04.13.06.2,0,0,0,.02,0,.03,0,.02.01.04.02.06,0,0,0,.02,0,.02.01.04.02.07.04.11,0,0,0,.02,0,.02,0,.02.01.03.02.05,0,.01,0,.03.01.04,0,.02.01.03.02.05,0,.01,0,.02.01.03.01.03.02.06.03.09,0,.01,0,.03.01.04,0,.02.01.03.02.05,0,.02.01.03.02.05,0,.01,0,.03.01.04,0,.03.02.05.03.08,0,.02,0,.03.01.04,0,.02.01.03.02.05,0,.01,0,.03.01.04,0,.02.01.03.02.05,0,.02.01.03.02.05,0,.02.02.05.02.07,0,.01,0,.03.01.04,0,.02.01.03.02.05,0,.01,0,.02.01.04,0,.02.02.05.02.07,0,.01,0,.02.01.04,0,.02.01.04.02.06,0,.02,0,.03.01.04,0,.02.01.03.02.05,0,.01,0,.02.01.04,0,.03.02.06.03.08,0,0,0,.02,0,.03,0,.02.01.04.02.07,0,0,0,.02,0,.03,0,.02.02.05.02.07,0,0,0,.01,0,.02.01.03.02.06.03.09,0,0,0,.01,0,.02,0,.02.02.05.02.07,0,0,0,.02,0,.03.02.06.04.12.06.18,0,0,0,.02,0,.02,0,.03.02.05.03.08,0,0,0,.01,0,.01.02.06.04.13.07.19,0,0,0,0,0,.01.01.03.02.06.03.09,0,0,0,0,0,0,.02.07.05.13.07.19,0,0,0,0,0,0,.02.07.05.13.07.2,0,0,0,0,0,0,.77,2.13,1.61,4.23,2.54,6.29,3.52,7.86,8.14,15.16,13.69,21.68h0c.05.05.09.11.14.16h0c.07.08.14.16.2.24h0c.07.08.14.16.2.24h0c.05.06.09.11.14.16h0s.05.05.07.08h0c.05.05.09.11.14.16h0c.07.08.14.16.21.24,0,0,0,0,0,0,.05.05.09.1.14.16h0c.07.08.14.16.21.23,0,0,0,0,0,0,.07.08.14.15.21.23,0,0,0,0,0,0,.05.05.09.1.14.15,0,0,0,0,0,0,.02.02.04.05.07.07,0,0,0,0,0,0,.05.05.09.1.14.15,0,0,0,0,0,0,.07.07.14.15.21.23,0,0,0,0,0,0,.05.05.09.1.14.15,0,0,0,0,0,0,.02.02.04.05.07.07h0c.05.06.09.11.14.16h0s.04.05.07.08h0c.05.05.09.1.14.15,0,0,0,0,0,0,.07.07.14.15.21.22,0,0,0,0,0,0,.05.05.09.1.14.15,0,0,0,0,0,0,.02.02.04.05.06.07,0,0,0,0,0,0,.05.05.09.1.14.15,0,0,0,0,0,0,.05.05.09.1.14.15h0s.05.05.07.07c0,0,0,0,0,0,.05.05.09.1.14.15,0,0,0,0,0,0,.02.02.05.05.07.07,0,0,0,0,0,0,.05.05.09.1.14.14,0,0,0,0,0,0,.05.05.09.1.14.15,0,0,0,0,0,0,.02.02.05.05.07.07,0,0,0,0,0,0,.05.05.1.1.14.15,0,0,0,0,0,0,.02.02.04.05.07.07,0,0,0,0,0,0,.05.05.09.1.14.14,0,0,0,0,0,0,.07.07.14.14.21.21,0,0,0,0,.01.01.05.05.09.09.14.14h0s.04.05.07.07c0,0,0,0,.01.01.05.05.09.09.14.14,0,0,0,0,.01.01.02.02.04.04.06.06,0,0,0,0,.01.01.02.02.05.05.07.07,0,0,0,0,0,0,.02.02.04.04.06.06,0,0,.01.01.02.02.02.02.04.04.06.06,0,0,0,0,0,0,.02.02.05.05.07.07,0,0,0,0,0,0,.02.02.04.04.06.06,0,0,.01.01.02.02.05.05.09.09.14.13,0,0,.01.01.02.02.02.02.04.04.06.06,0,0,.01,0,.01.01.02.02.05.05.07.07h0s.04.05.06.07c0,0,.01.01.02.02.02.02.04.04.06.05,0,0,.01.01.02.01.02.02.04.04.07.06,0,0,.01.01.02.02.02.02.04.04.05.05,0,0,.01.01.02.02.05.04.09.09.14.13,0,0,0,0,.01.01.02.02.04.04.06.06,0,0,0,0,.01.01.02.02.05.05.07.07,0,0,0,0,0,0,.02.02.04.04.07.06,0,0,.01.01.02.02.02.02.03.03.05.05,0,0,.01.01.02.02.02.02.04.04.07.06,0,0,.01,0,.01.01.02.02.04.04.06.05,0,0,.01.01.02.02.02.02.04.04.06.06,0,0,0,0,0,0,.02.02.05.04.07.06,0,0,.01.01.02.02.02.02.03.03.05.05,0,0,.01.01.02.02.02.02.05.04.07.07,0,0,0,0,0,0,.02.02.04.04.06.06,0,0,.01.01.02.02.02.02.04.03.06.05,0,0,.01,0,.02.01.02.02.05.04.07.07,0,0,0,0,0,0,.02.02.04.04.06.06,0,0,.01.01.02.02.02.02.04.04.06.06,0,0,0,0,0,0,.02.02.05.04.07.06,0,0,.01.01.02.02.02.02.04.03.06.05,0,0,.01.01.02.02.05.04.09.09.14.13,0,0,.01.01.02.02.02.02.04.03.05.05,0,0,.01.01.02.02.02.02.05.04.07.06,0,0,0,0,0,0,.02.02.04.04.06.06,0,0,.01.01.02.01.02.02.05.04.07.06h0s.05.05.08.07c0,0,0,0,0,0,.02.02.04.04.06.06,0,0,0,0,.01.01.02.02.05.04.07.06h0s.05.05.07.07c0,0,0,0,.01.01.02.02.04.03.06.05,0,0,.01.01.02.02.02.02.05.04.07.06h0s.05.04.07.06c0,0,.01.01.02.02.02.02.04.04.06.05,0,0,0,0,.01,0,.02.02.05.04.07.06,0,0,.01.01.02.01.02.02.04.03.06.05,0,0,.01.01.02.02.02.02.04.04.06.06,0,0,0,0,0,0,.02.02.05.04.07.06,0,0,.01.01.02.01.02.02.04.03.06.05,0,0,.01.01.02.02.05.04.09.08.14.13,0,0,.01,0,.02.02.02.02.04.04.06.05,0,0,0,0,.01.01.02.02.05.04.07.06,0,0,0,0,.01.01.02.02.04.04.06.06,0,0,0,0,.01.01.02.02.05.04.07.06,0,0,0,0,0,0,.02.02.05.04.07.06,0,0,.01.01.02.01.02.02.04.03.06.05,0,0,.01.01.02.02.02.02.05.04.07.06,0,0,0,0,0,0,.02.02.05.04.07.06,0,0,.01.01.02.02.02.02.04.04.06.05,0,0,0,0,0,0,.03.02.05.04.08.06,0,0,0,0,.01,0,.02.02.04.04.06.05,0,0,.01.01.02.02.02.02.04.04.06.05,0,0,0,0,.01,0,.02.02.05.04.07.06,0,0,.02.01.02.02.02.01.03.03.05.04,0,0,.02.02.03.02.05.04.09.08.14.12,0,0,.01.01.02.02.02.02.04.03.06.05,0,0,0,0,.01.01.02.02.05.04.07.06,0,0,0,0,0,0,.02.02.04.04.07.05,0,0,.01.01.02.02.02.02.04.04.07.06,0,0,0,0,0,0,.03.02.05.04.08.06h0s.04.04.07.06c0,0,0,0,.02.01.05.04.1.08.15.12,0,0,.01.01.02.01.02.02.04.03.06.05,0,0,0,0,.01.01.02.02.05.04.08.06,0,0,0,0,0,0,.02.02.05.04.07.06,0,0,0,0,.01.01.02.02.04.04.07.05,0,0,0,0,.01,0,.03.02.05.04.08.06,0,0,0,0,0,0,.02.02.04.04.07.05,0,0,.01,0,.02.01.05.04.1.08.15.12,0,0,0,0,0,0,.02.02.05.04.07.06,0,0,0,0,0,0,.05.04.1.08.16.13,0,0,0,0,.01,0,.02.02.05.04.07.06,0,0,0,0,0,0,.03.02.05.04.08.06,0,0,0,0,0,0,.02.02.05.04.07.06,0,0,0,0,.01.01.05.04.1.08.15.12,0,0,0,0,.01,0,.02.02.04.04.07.05,0,0,0,0,.01.01.03.02.05.04.08.06h0s.05.04.08.06c0,0,0,0,.02.01.02.02.05.04.07.05,0,0,0,0,0,0,.03.02.05.04.08.06,0,0,0,0,0,0,.02.02.04.03.07.05,0,0,.02.01.02.02.02.02.04.04.07.05,0,0,0,0,0,0,.03.02.05.04.08.06,0,0,0,0,.01.01.02.02.04.03.07.05,0,0,0,0,.01.01.05.04.1.08.16.12,0,0,0,0,.01.01.02.02.04.03.07.05,0,0,.01,0,.02.01.03.02.05.04.08.06h0s.05.04.07.06c0,0,.01,0,.02.02.02.02.05.04.07.05,0,0,0,0,0,0,.03.02.05.04.08.06h0s.05.04.08.06c0,0,0,0,.01,0,.03.02.05.04.08.06h0s.05.04.08.06c0,0,0,0,.01,0,.02.02.04.03.07.05,0,0,.01,0,.02.01.03.02.05.04.08.06,0,0,0,0,0,0,.02.02.05.04.07.06,0,0,.01,0,.02.02.02.02.04.03.07.05,0,0,0,0,0,0,.03.02.05.04.08.06,0,0,0,0,.01,0,.02.02.04.03.07.05,0,0,0,0,.02.01.02.02.05.04.07.06h0s.05.04.08.06c0,0,0,0,.01,0,.02.02.05.03.07.05,0,0,.01,0,.02.01.05.04.1.08.15.11,0,0,.01.01.02.02.02.02.04.03.06.05,0,0,0,0,.01.01.03.02.05.04.08.06,0,0,0,0,.01.01.02.02.04.03.07.05,0,0,.01,0,.02.01.02.02.05.03.07.05,0,0,0,0,.01,0,.03.02.05.04.08.06,0,0,.01,0,.01.01.02.02.04.03.07.05,0,0,.01,0,.02.01.05.04.1.08.16.11,0,0,.01,0,.02.02.02.02.04.03.07.05,0,0,0,0,0,0,.03.02.05.04.08.06,0,0,0,0,0,0,.02.02.05.04.07.05,0,0,.01,0,.02.01.02.02.05.03.07.05,0,0,0,0,0,0,.03.02.05.04.08.06,0,0,0,0,.01,0,.02.02.04.03.07.05,0,0,.01,0,.02.01.05.04.1.08.16.11,0,0,.02.01.02.01.02.01.04.03.06.05,0,0,.01,0,.02.01.03.02.05.04.08.06h0s.05.04.08.06c0,0,.01,0,.02.01.02.02.05.03.07.05,0,0,0,0,.01,0,.03.02.05.04.08.06,0,0,0,0,0,0,.02.02.05.03.07.05,0,0,.01,0,.02.01.05.04.11.07.16.11,0,0,.01.01.02.01.02.01.04.03.06.04,0,0,.01,0,.02.01.03.02.05.04.08.06,0,0,0,0,0,0,.02.02.05.04.08.05,0,0,.01,0,.02.01.02.02.05.03.07.05,0,0,0,0,.01,0,.03.02.05.04.08.06,0,0,0,0,0,0,.02.02.05.03.07.05,0,0,.01,0,.02.01.05.04.11.07.16.11,0,0,.01,0,.01.01.02.02.05.03.07.05,0,0,0,0,0,0,.06.04.11.08.17.11,0,0,.01,0,.01,0,.02.02.05.03.07.05,0,0,0,0,.01.01.03.02.05.04.08.06h0s.05.04.08.05c0,0,.01,0,.02.01.03.02.05.04.08.05h0s.05.04.08.06c0,0,.01,0,.02.01.02.01.04.03.06.04,0,0,.01,0,.02.01.06.04.11.07.17.11,0,0,0,0,.01,0,.03.02.05.03.08.05,0,0,0,0,0,0,.06.04.11.07.17.11,0,0,0,0,.01,0,.06.04.11.07.17.11h0s.05.04.08.06c0,0,0,0,0,0,.06.04.11.07.17.11,0,0,0,0,0,0,.03.02.05.03.08.05,0,0,0,0,.01,0,.06.04.11.07.17.11,0,0,0,0,0,0,.09.06.17.11.26.17,0,0,0,0,0,0,.06.04.12.07.17.11,0,0,0,0,0,0,.03.02.05.03.08.05,0,0,0,0,0,0,.06.04.12.07.17.11,0,0,0,0,0,0,.03.02.06.04.08.05h0s.06.04.09.06c0,0,0,0,0,0,.03.02.05.03.08.05,0,0,0,0,.01,0,.06.04.12.07.17.11h0s.05.04.08.05c0,0,0,0,.01,0,.06.04.11.07.17.11,0,0,0,0,.01,0,.03.02.05.03.08.05,0,0,0,0,.01,0,.03.02.06.04.09.05h0s26.78-43.4,26.78-43.4c-6.66-4.11-12.09-10.33-15.31-17.51-2.31-5.15-4.62-13.43-2.52-23.59l-49.95-10.29h0ZM243.41,910.95h-110v51h110v-51h0ZM446.41,910.95h-110v51h110v-51h0ZM649.41,910.95h-110v51h110v-51h0ZM824.73,905.73c-5.9,3.42-12.65,5.22-19.5,5.22h-62.82v51h62.82s.07,0,.11,0c.01,0,.02,0,.04,0,.03,0,.05,0,.08,0,.01,0,.03,0,.04,0,.03,0,.06,0,.09,0,0,0,.02,0,.02,0,.04,0,.08,0,.11,0,0,0,.02,0,.03,0,.03,0,.06,0,.08,0,.01,0,.02,0,.03,0,.03,0,.05,0,.08,0,.01,0,.02,0,.03,0,.07,0,.15,0,.22,0,.01,0,.02,0,.04,0,.03,0,.05,0,.08,0,.01,0,.03,0,.04,0,.03,0,.06,0,.08,0,0,0,.02,0,.03,0,.04,0,.07,0,.11,0,0,0,.02,0,.03,0,.03,0,.06,0,.09,0,.01,0,.02,0,.04,0,.03,0,.05,0,.08,0,0,0,.02,0,.03,0,.04,0,.07,0,.11,0,0,0,0,0,.01,0,.03,0,.07,0,.1,0,.01,0,.02,0,.04,0,.03,0,.05,0,.08,0,.01,0,.03,0,.04,0,.03,0,.06,0,.08,0,0,0,.02,0,.03,0,.04,0,.07,0,.11,0,.01,0,.02,0,.03,0,.03,0,.05,0,.08,0,.01,0,.02,0,.04,0,.03,0,.05,0,.08,0,.01,0,.02,0,.03,0,.04,0,.07,0,.11,0,0,0,0,0,.01,0,.03,0,.07,0,.1,0,.01,0,.02,0,.03,0,.03,0,.05,0,.08,0,.01,0,.02,0,.04,0,.03,0,.06,0,.09,0,0,0,.02,0,.02,0,.04,0,.08,0,.11,0,0,0,.02,0,.03,0,.03,0,.06,0,.08,0,.01,0,.02,0,.04,0,.03,0,.05,0,.08,0,.01,0,.02,0,.03,0,.04,0,.07,0,.11,0,0,0,.01,0,.02,0,.03,0,.06,0,.09,0,.01,0,.03,0,.04,0,.03,0,.05,0,.07,0,.01,0,.03,0,.04,0,.03,0,.06,0,.09,0,0,0,.01,0,.02,0,.04,0,.07,0,.11,0,.01,0,.02,0,.04,0,.02,0,.05,0,.08,0,.01,0,.03,0,.04,0,.03,0,.05,0,.08,0,.01,0,.02,0,.03,0,.04,0,.07,0,.11,0,0,0,.02,0,.02,0,.03,0,.06,0,.09,0,.01,0,.03,0,.04,0,.03,0,.05,0,.08,0,.01,0,.02,0,.04,0,.03,0,.06,0,.09,0,0,0,.01,0,.02,0,.04,0,.07,0,.11,0,.01,0,.02,0,.03,0,.03,0,.05,0,.08,0,.01,0,.03,0,.04,0,.03,0,.05,0,.08,0,0,0,.02,0,.03,0,.04,0,.07,0,.11,0,0,0,.01,0,.02,0,.03,0,.06,0,.09,0,.01,0,.02,0,.03,0,.03,0,.05,0,.08,0,.01,0,.02,0,.03,0,.03,0,.07,0,.1,0,0,0,0,0,.01,0,.04,0,.07,0,.11,0,.01,0,.02,0,.03,0,.03,0,.05,0,.08,0,.01,0,.02,0,.04,0,.03,0,.05,0,.08,0,.01,0,.02,0,.03,0,.04,0,.07,0,.11,0,0,0,.01,0,.02,0,.03,0,.06,0,.09,0,.01,0,.02,0,.03,0,.03,0,.06,0,.08,0,0,0,.02,0,.03,0,.03,0,.07,0,.1,0,0,0,0,0,.01,0,.04,0,.07,0,.11,0,0,0,.02,0,.03,0,.03,0,.06,0,.08,0,.01,0,.02,0,.04,0,.03,0,.06,0,.08,0,0,0,.02,0,.03,0,.04,0,.07,0,.11,0,0,0,.02,0,.03,0,.03,0,.06,0,.09,0,.01,0,.02,0,.03,0,.03,0,.05,0,.08,0,.01,0,.02,0,.03,0,.04,0,.07,0,.11,0h0s.07,0,.11,0h.04s.05,0,.07,0c.01,0,.03,0,.04,0,.03,0,.05,0,.07,0,.01,0,.02,0,.04,0,.04,0,.07,0,.11,0,.01,0,.02,0,.03,0,.02,0,.05,0,.07,0,.02,0,.03,0,.05,0,.02,0,.05,0,.07,0,.01,0,.03,0,.04,0,.03,0,.06,0,.09,0,.01,0,.02,0,.03,0,.03,0,.06,0,.09,0,.01,0,.03,0,.04,0,.03,0,.05,0,.07,0,.01,0,.03,0,.04,0,.03,0,.05,0,.08,0,0,0,.02,0,.03,0,.04,0,.07,0,.11-.01.01,0,.02,0,.03,0,.03,0,.05,0,.08,0,.01,0,.03,0,.04,0,.02,0,.05,0,.07,0,.01,0,.03,0,.04,0,.04,0,.07,0,.1-.01,0,0,0,0,0,0,.04,0,.07,0,.11-.01.01,0,.02,0,.04,0,.03,0,.05,0,.08,0,.01,0,.03,0,.04,0,.02,0,.05,0,.08,0,.01,0,.02,0,.04,0,.04,0,.07,0,.1-.01.01,0,.02,0,.04,0,.02,0,.05,0,.07,0,.01,0,.03,0,.04,0h.07s.03-.01.04-.01c.03,0,.06,0,.09,0,.02,0,.03,0,.04,0,.03,0,.06,0,.08,0,.01,0,.03,0,.04,0,.02,0,.04,0,.07,0,.01,0,.03,0,.04,0,.03,0,.05,0,.08,0,.01,0,.02,0,.03,0,.03,0,.07,0,.1-.01.01,0,.02,0,.04,0,.02,0,.05,0,.07,0,.01,0,.03,0,.04,0,.02,0,.05,0,.07,0,.01,0,.03,0,.04,0,.03,0,.07,0,.11-.01,0,0,0,0,.01,0,.03,0,.06,0,.09-.01.01,0,.03,0,.04,0,.02,0,.04,0,.07,0,.01,0,.03,0,.04,0,.02,0,.05,0,.07,0,.01,0,.02,0,.03,0,.03,0,.07,0,.1-.01.01,0,.03,0,.04,0,.02,0,.04,0,.07,0,.02,0,.03,0,.05,0,.02,0,.04,0,.06,0,.01,0,.03,0,.04,0,.03,0,.06,0,.09-.01.02,0,.04,0,.05,0,.02,0,.04,0,.07,0,.02,0,.03,0,.05,0,.02,0,.04,0,.06,0,.02,0,.04,0,.05,0,.02,0,.04,0,.06,0,.01,0,.03,0,.04,0,.03,0,.07,0,.1-.01.01,0,.03,0,.04,0,.02,0,.04,0,.06,0,.01,0,.03,0,.04,0,.02,0,.04,0,.06,0,.01,0,.03,0,.05,0,.03,0,.06,0,.09-.01.02,0,.03,0,.05,0,.02,0,.04,0,.07,0,.02,0,.03,0,.05,0,.02,0,.04,0,.06,0,.02,0,.03,0,.05,0,.02,0,.04,0,.06,0,.02,0,.03,0,.05,0,.03,0,.06,0,.1-.01.01,0,.03,0,.04,0,.02,0,.04,0,.07,0,.02,0,.03,0,.04,0,.02,0,.04,0,.06,0,.02,0,.03,0,.04,0,.02,0,.05,0,.07-.01.02,0,.04,0,.07,0,.02,0,.04,0,.06,0,.02,0,.03,0,.05,0,.02,0,.04,0,.06,0,.02,0,.03,0,.05,0,.02,0,.04,0,.07-.01.01,0,.03,0,.04,0,.03,0,.06,0,.09-.01.02,0,.03,0,.05,0,.02,0,.04,0,.06,0,.02,0,.03,0,.05,0,.02,0,.04,0,.06,0,.02,0,.03,0,.05,0,.03,0,.07-.01.1-.02.02,0,.03,0,.05,0,.02,0,.04,0,.06,0,.02,0,.04,0,.05,0,.02,0,.03,0,.05,0,.02,0,.03,0,.05,0,.02,0,.05,0,.07-.01.02,0,.04,0,.06,0,.03,0,.06,0,.08-.01.02,0,.04,0,.05,0,.02,0,.03,0,.05,0,.02,0,.04,0,.06,0,.02,0,.03,0,.05,0,.02,0,.04,0,.05,0,.02,0,.05,0,.07-.01.02,0,.05,0,.08-.01.02,0,.04,0,.05,0,.02,0,.04,0,.05,0,.02,0,.03,0,.05,0,.02,0,.04,0,.05,0,.02,0,.04,0,.06,0,.03,0,.06-.01.09-.02.01,0,.03,0,.05,0,.02,0,.04,0,.06-.01.01,0,.03,0,.04,0,.02,0,.04,0,.06-.01.01,0,.03,0,.04,0,.07-.01.15-.03.22-.04.01,0,.03,0,.04,0,.02,0,.04,0,.06-.01.01,0,.03,0,.04,0,.02,0,.04,0,.06-.01.01,0,.03,0,.04,0,.04,0,.08-.01.12-.02.01,0,.03,0,.04,0,.02,0,.04,0,.06-.01.02,0,.03,0,.05,0,.02,0,.04,0,.06-.01.01,0,.03,0,.04,0,.02,0,.04,0,.06-.01,0,0,.02,0,.03,0,.04,0,.08-.02.13-.02.01,0,.03,0,.04,0,.02,0,.04,0,.06-.01.01,0,.03,0,.04,0,.02,0,.04,0,.06-.01.01,0,.03,0,.04,0,.04,0,.08-.01.12-.02.01,0,.02,0,.04,0,.02,0,.04,0,.06-.01.01,0,.03,0,.04,0,.02,0,.04,0,.06-.01.01,0,.03,0,.04,0,.07-.01.15-.03.22-.04.01,0,.02,0,.03,0,.02,0,.04,0,.07-.01.01,0,.02,0,.04,0,.02,0,.04,0,.07-.01,0,0,.02,0,.03,0,.04,0,.08-.02.13-.02.01,0,.02,0,.04,0,.02,0,.04,0,.06-.01.01,0,.03,0,.04,0h.06s.03-.02.04-.02c.02,0,.04,0,.06-.01.03,0,.06-.01.09-.02.02,0,.04,0,.06-.01.01,0,.03,0,.04,0,.02,0,.04,0,.06-.01.01,0,.02,0,.04,0,.02,0,.04,0,.07-.01,0,0,.02,0,.03,0,.04,0,.09-.02.13-.03,0,0,.02,0,.03,0,.02,0,.05,0,.07-.01.01,0,.02,0,.03,0,.02,0,.04,0,.07-.01,0,0,.02,0,.03,0,.08-.02.15-.03.23-.05,0,0,.02,0,.03,0,.02,0,.05,0,.07-.01.01,0,.02,0,.03,0,.02,0,.05,0,.07-.02,0,0,0,0,0,0,.05-.01.11-.02.16-.04,0,0,.01,0,.02,0,.02,0,.05,0,.07-.02.01,0,.02,0,.03,0,.02,0,.05-.01.07-.01,0,0,.02,0,.03,0,.08-.02.15-.03.23-.05.01,0,.02,0,.03,0,.02,0,.05-.01.07-.02,0,0,.02,0,.03,0,.02,0,.05-.01.07-.02,0,0,0,0,0,0,.05-.01.1-.02.16-.04,0,0,.02,0,.02,0,.02,0,.05-.01.07-.02,0,0,.02,0,.03,0,.02,0,.05-.01.07-.02,0,0,.02,0,.02,0,.08-.02.16-.04.24-.06,0,0,.01,0,.02,0,.03,0,.05-.01.08-.02,0,0,.01,0,.02,0,.08-.02.16-.04.24-.06,0,0,.01,0,.02,0,.02,0,.05-.01.07-.02,0,0,.01,0,.02,0,.03,0,.05-.01.08-.02,0,0,0,0,0,0,.08-.02.17-.04.25-.06,0,0,.01,0,.02,0,.03,0,.05-.01.08-.02,0,0,.01,0,.02,0,.08-.02.17-.04.25-.06,0,0,0,0,0,0,.03,0,.05-.01.08-.02,0,0,0,0,.01,0,.03,0,.05-.01.08-.02,0,0,0,0,0,0,.09-.02.17-.04.26-.06,0,0,.01,0,.01,0,.03,0,.05-.01.08-.02,0,0,.01,0,.02,0,.11-.03.22-.06.34-.09,0,0,0,0,.01,0,.11-.03.23-.06.34-.09,0,0,0,0,0,0,.03,0,.06-.01.08-.02h0c.12-.03.23-.06.35-.09,0,0,0,0,0,0,.12-.03.23-.06.35-.09,0,0,0,0,0,0,.03,0,.06-.02.09-.02h0c.12-.03.23-.06.35-.1,0,0,0,0,0,0,.12-.03.23-.06.35-.1h0c7.24-2.05,14.13-4.98,20.54-8.69l-25.55-44.14h0ZM872.3,754.8l-24.75,107.18,49.69,11.48s7.83-33.89,14.68-63.56v-.05c.1-.4.19-.79.29-1.19v-.04c.1-.38.19-.77.27-1.15l.03-.15c.08-.36.17-.73.25-1.09l.02-.09c.04-.18.08-.36.13-.54v-.04s.03-.08.04-.12v-.03s.02-.07.03-.1v-.06s.03-.08.04-.12l.15-.64s.01-.05.02-.07l.03-.11c.02-.07.03-.14.05-.22v-.04s.03-.07.04-.11l.02-.07s0-.02,0-.03l.03-.13s0-.03.01-.05v-.06s.03-.06.04-.09l.02-.08s0-.03.01-.04l.1-.43h0s8.47-36.66,8.47-36.66l-49.69-11.48h0ZM917.98,557.01l-24.75,107.18,49.69,11.48,24.75-107.18-49.69-11.48h0ZM963.66,359.22l-24.75,107.18,49.69,11.48,24.75-107.18-49.69-11.48h0ZM927.1,202.74l-39.92,31.74,68.47,86.09,39.92-31.74s-35.35-44.45-55.24-69.47l-.04-.05c-.42-.53-.83-1.05-1.24-1.56l-.03-.04c-.2-.25-.4-.51-.6-.76h-.01c-.1-.14-.19-.26-.29-.38l-.03-.03c-.04-.05-.08-.1-.12-.15l-.03-.04s-.03-.04-.05-.06l-.17-.22s-.04-.05-.06-.07h0c-.04-.07-.09-.12-.13-.18l-.03-.03c-.09-.11-.17-.22-.26-.33l-.05-.06c-.09-.11-.17-.22-.26-.33l-.03-.03s-.08-.1-.12-.15l-.04-.05s-.03-.03-.04-.05v-.02s-.04-.04-.06-.05l-.05-.06s-.07-.08-.1-.12l-.04-.06s-.07-.09-.1-.13l-.04-.05s-.07-.09-.11-.13l-.03-.04s-.02-.03-.03-.04l-.04-.06s-.01-.01-.02-.02l-.1-.13s-.04-.05-.06-.08l-.02-.03s-.08-.1-.12-.15l-.02-.02c-.04-.05-.08-.1-.12-.15l-.18-.22c-.08-.1-.16-.2-.23-.29h0c-.09-.12-.17-.23-.26-.34h-.01c-.09-.12-.17-.23-.26-.34h0c-.08-.11-.15-.2-.23-.3l-.05-.06s-.07-.09-.11-.13h0s-.04-.05-.06-.07l-.02-.03s-.02-.02-.03-.03l-.04-.05s-.03-.04-.04-.05h0s-.03-.04-.04-.06l-.04-.05s-.05-.07-.08-.1l-.07-.09s-.05-.06-.07-.09l-.02-.02s-.04-.05-.06-.07l-.21-.26s0-.01-.02-.02l-.17-.22s0,0,0,0l-.06-.07h0s-.05-.06-.05-.06c0,0-.01-.02-.02-.03l-.04-.06s-.02-.03-.03-.04h0s-.03-.05-.05-.07l-.02-.03s-.06-.07-.09-.11l-.05-.06s-.02-.02-.03-.04h0s-.03-.05-.05-.07l-.02-.03s-.06-.08-.1-.12l-.02-.03c-.07-.08-.13-.17-.2-.25l-.04-.05c-.07-.09-.14-.17-.2-.25l-.02-.02s-.07-.09-.1-.13h0s-.05-.07-.08-.1l-.1-.13s-.02-.02-.03-.03l-.04-.05s0,0,0-.01l-.05-.06s0,0,0,0l-.05-.06s-.02-.03-.03-.04h0s-.02-.03-.03-.04l-.2-.25s0,0-.01-.01l-.14-.17c-.06-.07-.12-.15-.18-.22l-.04-.05s0-.01-.01-.02l-.02-.02c-.04-.05-.09-.11-.13-.16l-.04-.05s-.01-.01-.02-.02l-.02-.03s-.01-.02-.02-.03l-.35-.44s-.02-.03-.03-.04l-1.02-1.29s-.02-.02-.03-.03l-.82-1.03s-.01-.01-.02-.02h0s-.01-.02-.02-.03l-.12-.15s0,0,0,0l-.02-.03s-.01-.02-.02-.02h0s0-.02-.01-.02l-.05-.07s0,0,0-.01l-1.26-1.58h0ZM815.21,62.05h-110v51h85.4l38.68,48.65,39.92-31.74-54-67.9h0Z"/>
  <path class="cls-1" d="M638.35,339l73.32,92.19-58.62,253.81h-343.32l79.87-346h248.75M662.95,288h-278.29c-20.86,0-38.96,14.4-43.65,34.72l-82.73,358.4c-6.48,28.07,14.84,54.88,43.65,54.88h356.05c20.86,0,38.96-14.4,43.65-34.72l65.26-282.58-103.94-130.7h0Z"/>
</svg>