<?xml version="1.0" encoding="UTF-8"?>
<svg id="Alt._Rev" data-name="Alt. Rev" xmlns="http://www.w3.org/2000/svg" viewBox="0 0 1024 1024">
  <defs>
    <style>
      .cls-1 {
        stroke-width: 17px;
      }

      .cls-1, .cls-2, .cls-3 {
        fill: none;
        stroke: #e3f1ff;
        stroke-linecap: round;
      }

      .cls-1, .cls-3 {
        stroke-linejoin: round;
      }

      .cls-4 {
        fill: #e3f1ff;
        stroke-width: 0px;
      }

      .cls-2 {
        stroke-miterlimit: 10;
      }

      .cls-2, .cls-3 {
        stroke-width: 39px;
      }
    </style>
  </defs>
  <g>
    <path class="cls-1" d="M826.54,638.03c-5.2,23.56-28.52,42.67-52.08,42.67s-38.45-19.1-33.25-42.67,28.52-42.67,52.08-42.67c-3.3,14.95-9.41,42.67-9.41,42.67h42.67Z"/>
    <polygon class="cls-1" points="779.46 851.37 694.13 851.37 755.63 766.03 779.46 851.37"/>
    <g>
      <polygon class="cls-1" points="608.8 851.37 523.46 851.37 542.29 766.03 627.63 766.03 608.8 851.37"/>
      <line class="cls-1" x1="618.21" y1="808.7" x2="532.88" y2="808.7"/>
    </g>
    <g>
      <line class="cls-1" x1="652.73" y1="652.26" x2="567.4" y2="652.26"/>
      <line class="cls-1" x1="659.01" y1="623.81" x2="573.67" y2="623.81"/>
    </g>
  </g>
  <g>
    <path class="cls-4" d="M282.03,252.71c4.6,3.05,8.3,7.15,11.1,12.3,2.8,5.15,4.2,10.78,4.2,16.88s-1.4,11.6-4.2,16.8c-2.8,5.2-6.5,9.33-11.1,12.38-4.6,3.05-9.45,4.58-14.55,4.58h-26.1v28.35c0,2.7-.8,4.9-2.4,6.6-1.6,1.7-3.7,2.55-6.3,2.55s-4.55-.87-6.15-2.62c-1.6-1.75-2.4-3.92-2.4-6.53v-86.7c0-2.6.87-4.77,2.62-6.53,1.75-1.75,3.92-2.62,6.52-2.62h34.2c5.1,0,9.95,1.53,14.55,4.58ZM273.1,296.13c1.85-1.6,3.35-3.67,4.5-6.22,1.15-2.55,1.73-5.22,1.73-8.03s-.58-5.47-1.73-8.03c-1.15-2.55-2.65-4.6-4.5-6.15-1.85-1.55-3.73-2.33-5.62-2.33h-26.1v33.15h26.1c1.9,0,3.77-.8,5.62-2.4Z"/>
    <path class="cls-4" d="M391.3,255.11c6.75,4.65,11.9,10.95,15.45,18.9,3.55,7.95,5.33,16.83,5.33,26.62s-1.78,18.67-5.33,26.62c-3.55,7.95-8.7,14.25-15.45,18.9-6.75,4.65-14.83,6.97-24.23,6.97h-35.85c-2.6,0-4.78-.87-6.52-2.62-1.75-1.75-2.62-3.92-2.62-6.53v-86.7c0-2.6.87-4.77,2.62-6.53,1.75-1.75,3.92-2.62,6.52-2.62h35.85c9.4,0,17.48,2.33,24.23,6.97ZM385.83,325.91c4.5-6.65,6.75-15.08,6.75-25.28s-2.28-18.62-6.83-25.28c-4.55-6.65-11.28-9.97-20.17-9.97h-24.75v70.5h24.75c9,0,15.75-3.32,20.25-9.97Z"/>
    <path class="cls-4" d="M455.57,265.38v26.4h32.4c2.6,0,4.77.82,6.52,2.47,1.75,1.65,2.62,3.78,2.62,6.38,0,2.2-.88,4.15-2.62,5.85-1.75,1.7-3.93,2.55-6.52,2.55h-32.4v34.95c0,2.6-.93,4.78-2.77,6.53-1.85,1.75-4.03,2.62-6.53,2.62-2.8,0-5.08-.85-6.83-2.55-1.75-1.7-2.62-3.9-2.62-6.6v-86.7c0-2.6.87-4.77,2.62-6.53,1.75-1.75,3.92-2.62,6.52-2.62h48.75c2.6,0,4.77.83,6.52,2.47,1.75,1.65,2.62,3.78,2.62,6.38,0,2.2-.88,4.15-2.62,5.85-1.75,1.7-3.93,2.55-6.52,2.55h-39.15Z"/>
  </g>
  <polyline class="cls-3" points="549.37 389.57 520.8 512 388.68 512"/>
  <path class="cls-2" d="M288.9,512h-147.83c-27.19,0-38.57-20.78-32.46-47.27L188.74,117.6c4.43-19.18,15.82-28.33,35.51-28.33h269.76l96.99,121.91-18.14,77.72"/>
  <path class="cls-2" d="M626.19,512h193.82l96.99,121.91-64.09,274.62c-4.43,19.18-16.5,26.21-36.18,26.21h-349.67c-27.19,0-38.57-20.78-32.46-47.27l63.95-277.03"/>
</svg>