<?xml version="1.0" encoding="UTF-8"?>
<svg id="Alt._Rev" data-name="Alt. Rev" xmlns="http://www.w3.org/2000/svg" viewBox="0 0 1024 1024">
  <defs>
    <style>
      .cls-1 {
        fill: #e3f1ff;
        stroke-width: 0px;
      }
    </style>
  </defs>
  <path class="cls-1" d="M475.25,323.38c-7.01-5.5-10.5-15.25-10.5-29.25v-14.25c0-13.99,3.75-23.74,11.25-29.25,7.5-5.5,19.5-8.25,36-8.25,17.5,0,29.74,2.75,36.75,8.25,7,5.51,10.5,15.26,10.5,29.25v14.25c0,14.51-3.63,24.38-10.88,29.62-7.25,5.25-19.63,7.88-37.12,7.88s-29-2.74-36-8.25ZM544.25,768.5c-8.51,8.75-19.25,13.12-32.25,13.12s-23.75-4.37-32.25-13.12c-8.51-8.74-12.75-19.62-12.75-32.62v-309.75c0-13,4.24-23.87,12.75-32.62,8.5-8.74,19.24-13.12,32.25-13.12s23.74,4.38,32.25,13.12c8.5,8.75,12.75,19.63,12.75,32.62v309.75c0,13.01-4.25,23.88-12.75,32.62Z"/>
  <path class="cls-1" d="M937.14,127.15c15.79,0,25.22,8.9,29.44,14.2,4.22,5.3,10.77,16.5,7.21,31.88l-160.38,694.46c-3.96,17.17-19.04,29.16-36.66,29.16H86.86c-15.79,0-25.22-8.9-29.44-14.2-4.22-5.3-10.77-16.5-7.22-31.88L210.51,156.31c3.96-17.17,19.04-29.16,36.66-29.16h689.98M937.14,77.95H247.16c-40.43,0-75.5,27.9-84.59,67.29L2.26,839.7c-12.56,54.4,28.76,106.35,84.59,106.35h689.9c40.42,0,75.5-27.9,84.59-67.28l160.38-694.46c12.57-54.41-28.75-106.36-84.59-106.36h0Z"/>
</svg>