<?xml version="1.0" encoding="UTF-8"?>
<svg id="Alt._Rev" data-name="Alt. Rev" xmlns="http://www.w3.org/2000/svg" viewBox="0 0 1024 1024">
  <defs>
    <style>
      .cls-1 {
        stroke-dasharray: 0 0 110 93;
        stroke-miterlimit: 10;
      }

      .cls-1, .cls-2 {
        fill: none;
        stroke: #e3f1ff;
        stroke-linecap: round;
        stroke-width: 51px;
      }

      .cls-3 {
        fill: #e3f1ff;
        stroke-width: 0px;
      }

      .cls-2 {
        stroke-linejoin: round;
      }
    </style>
  </defs>
  <path class="cls-3" d="M790.61,113.05l178.16,224.03-125.56,543.65c-4.11,17.79-19.73,30.22-37.99,30.22H90.03c-16.36,0-26.14-9.22-30.51-14.72-4.37-5.5-11.16-17.1-7.48-33.04L218.22,143.27c4.11-17.79,19.73-30.22,37.99-30.22h534.4M815.22,62.05H256.21c-41.9,0-78.26,28.92-87.68,69.75L2.34,851.72c-13.02,56.39,29.81,110.23,87.68,110.23h715.2c41.9,0,78.25-28.92,87.68-69.74l131.09-567.62L815.22,62.05h0Z"/>
  <line class="cls-1" x1="44.06" y1="905.87" x2="888.84" y2="201.59"/>
  <polyline class="cls-2" points="428 288 428 428 288 428"/>
  <polyline class="cls-2" points="596 736 596 596 736 596"/>
</svg>