<?xml version="1.0" encoding="UTF-8"?>
<svg id="Alt._Rev" data-name="Alt. Rev" xmlns="http://www.w3.org/2000/svg" viewBox="0 0 1024 1024">
  <defs>
    <style>
      .cls-1 {
        stroke-width: 40.71px;
      }

      .cls-1, .cls-2 {
        fill: none;
        stroke: #e3f1ff;
        stroke-linecap: round;
        stroke-linejoin: round;
      }

      .cls-3 {
        fill: #e3f1ff;
        stroke-width: 0px;
      }

      .cls-2 {
        stroke-width: 51px;
      }
    </style>
  </defs>
  <path class="cls-3" d="M790.61,113.05l178.16,224.03-125.56,543.65c-4.11,17.79-19.73,30.22-37.99,30.22H90.03c-16.36,0-26.14-9.22-30.51-14.72s-11.16-17.1-7.48-33.04L218.22,143.27c4.11-17.79,19.73-30.22,37.99-30.22h534.4M815.21,62.05H256.21c-41.9,0-78.26,28.92-87.68,69.75L2.34,851.72c-13.02,56.39,29.81,110.23,87.68,110.23h715.2c41.9,0,78.25-28.92,87.68-69.74l131.09-567.62L815.21,62.05h0Z"/>
  <g>
    <path class="cls-2" d="M696.69,417.65c0,88.56-71.79,160.35-160.35,160.35s-160.35-71.79-160.35-160.35,71.79-160.35,160.35-160.35v160.35h160.35Z"/>
    <path class="cls-1" d="M608.69,215.31c70.69,0,128,57.31,128,128h-128v-128Z"/>
  </g>
  <line class="cls-1" x1="166" y1="798" x2="566" y2="798"/>
  <line class="cls-1" x1="212" y1="690" x2="786" y2="690"/>
</svg>