<?xml version="1.0" encoding="UTF-8"?>
<svg id="Alt._Rev" data-name="Alt. Rev" xmlns="http://www.w3.org/2000/svg" viewBox="0 0 1024 1024">
  <defs>
    <style>
      .cls-1 {
        fill: #e3f1ff;
        stroke-width: 0px;
      }
    </style>
  </defs>
  <g>
    <path class="cls-1" d="M382.55,416.15c9.2,6.1,16.6,14.3,22.2,24.6,5.6,10.3,8.4,21.55,8.4,33.75s-2.8,23.2-8.4,33.6c-5.6,10.4-13,18.65-22.2,24.75-9.2,6.1-18.9,9.15-29.1,9.15h-52.2v56.7c0,5.4-1.6,9.8-4.8,13.2-3.2,3.4-7.4,5.1-12.6,5.1s-9.1-1.75-12.3-5.25c-3.2-3.5-4.8-7.85-4.8-13.05v-173.4c0-5.2,1.75-9.55,5.25-13.05,3.5-3.5,7.85-5.25,13.05-5.25h68.4c10.2,0,19.9,3.05,29.1,9.15ZM364.7,503c3.7-3.2,6.7-7.35,9-12.45,2.3-5.1,3.45-10.45,3.45-16.05s-1.15-10.95-3.45-16.05c-2.3-5.1-5.3-9.2-9-12.3-3.7-3.1-7.45-4.65-11.25-4.65h-52.2v66.3h52.2c3.8,0,7.55-1.6,11.25-4.8Z"/>
    <path class="cls-1" d="M601.1,420.95c13.5,9.3,23.8,21.9,30.9,37.8,7.1,15.9,10.65,33.65,10.65,53.25s-3.55,37.35-10.65,53.25c-7.1,15.9-17.4,28.5-30.9,37.8s-29.65,13.95-48.45,13.95h-71.7c-5.2,0-9.55-1.75-13.05-5.25-3.5-3.5-5.25-7.85-5.25-13.05v-173.4c0-5.2,1.75-9.55,5.25-13.05,3.5-3.5,7.85-5.25,13.05-5.25h71.7c18.8,0,34.95,4.65,48.45,13.95ZM590.15,562.55c9-13.3,13.5-30.15,13.5-50.55s-4.55-37.25-13.65-50.55c-9.1-13.3-22.55-19.95-40.35-19.95h-49.5v141h49.5c18,0,31.5-6.65,40.5-19.95Z"/>
    <path class="cls-1" d="M729.65,441.5v52.8h64.8c5.2,0,9.55,1.65,13.05,4.95,3.5,3.3,5.25,7.55,5.25,12.75,0,4.4-1.75,8.3-5.25,11.7-3.5,3.4-7.85,5.1-13.05,5.1h-64.8v69.9c0,5.2-1.85,9.55-5.55,13.05-3.7,3.5-8.05,5.25-13.05,5.25-5.6,0-10.15-1.7-13.65-5.1-3.5-3.4-5.25-7.8-5.25-13.2v-173.4c0-5.2,1.75-9.55,5.25-13.05,3.5-3.5,7.85-5.25,13.05-5.25h97.5c5.2,0,9.55,1.65,13.05,4.95,3.5,3.3,5.25,7.55,5.25,12.75,0,4.4-1.75,8.3-5.25,11.7-3.5,3.4-7.85,5.1-13.05,5.1h-78.3Z"/>
  </g>
  <path class="cls-1" d="M790.61,113.05l178.16,224.03-125.56,543.65c-4.11,17.79-19.73,30.22-37.99,30.22H90.03c-16.36,0-26.14-9.22-30.51-14.72s-11.16-17.1-7.48-33.04L218.22,143.27c4.11-17.79,19.73-30.22,37.99-30.22h534.4M815.21,62.05H256.21c-41.9,0-78.26,28.92-87.68,69.75L2.34,851.72c-13.02,56.39,29.81,110.23,87.68,110.23h715.2c41.9,0,78.25-28.92,87.68-69.74l131.09-567.62L815.21,62.05h0Z"/>
</svg>