<?xml version="1.0" encoding="UTF-8"?>
<svg id="Layer_2" data-name="Layer 2" xmlns="http://www.w3.org/2000/svg" viewBox="0 0 304.54 300.2">
  <defs>
    <style>
      .cls-1 {
        fill: #3a638d;
        stroke-width: 0px;
      }
    </style>
  </defs>
  <g id="Alt._Rev" data-name="Alt. Rev">
    <path class="cls-1" d="M152.26,14.4c13.43,0,26.7,1.92,39.44,5.71,7.09,2.11,13.71,4.6,19.85,7.46-6.46-.95-12.63-1.42-18.71-1.42-15.82,0-31.23,2.88-45.81,8.57-47.17,18.39-78.64,62.94-80.18,113.49v.07s0,.07,0,.07l-.07,3.51v.15s0,.15,0,.15c0,14.44-11.76,26.19-26.21,26.19-2.55,0-5.08-.37-7.53-1.11-10.5-3.16-17.96-12.59-18.62-23.54,0-1.24.08-6.15.1-6.97.73-19.34,5.38-37.87,13.82-55.06,3.46-7.01,7.57-13.82,12.21-20.22,12.53-17.29,29.13-31.64,48.02-41.49,19.78-10.32,41.22-15.56,63.71-15.56M243.06,30.85h0M152.26,0C101.47,0,56.52,24.84,28.87,63c-5.09,7.02-9.6,14.46-13.47,22.3C6.35,103.77.94,124.39.11,146.19c-.04,1.04-.14,7.37-.11,8.05.9,17.43,12.79,31.97,28.87,36.8,3.69,1.11,7.63,1.72,11.68,1.72,22.42,0,40.61-18.18,40.61-40.59l.07-3.51c1.4-45.82,30.44-84.69,71.02-100.51,12.57-4.9,26.25-7.59,40.58-7.59,7.8,0,15.39.9,22.76,2.32,8.09,1.56,16.63,2.69,23.31,2.69,13.34,0,19.28-4.48-.57-18.93-12.64-9.2-27.21-15.75-42.54-20.32-13.8-4.11-28.41-6.31-43.54-6.31h0Z"/>
    <path class="cls-1" d="M264,121.84c2.55,0,5.08.37,7.53,1.11,10.51,3.16,17.96,12.59,18.62,23.54,0,1.23-.08,6.18-.1,6.98-.73,19.34-5.38,37.87-13.82,55.06-3.46,7.01-7.57,13.82-12.21,20.22-12.53,17.29-29.13,31.64-48.02,41.49-19.78,10.32-41.22,15.56-63.71,15.56-13.43,0-26.7-1.92-39.44-5.71-7.09-2.11-13.71-4.6-19.85-7.46,6.46.95,12.63,1.42,18.71,1.42,15.82,0,31.23-2.88,45.81-8.57,47.17-18.39,78.64-62.94,80.18-113.49v-.07s0-.07,0-.07l.07-3.51v-.15s0-.15,0-.15c0-14.44,11.76-26.19,26.21-26.19M264,107.44c-22.42,0-40.61,18.18-40.61,40.59l-.07,3.51c-1.4,45.82-30.44,84.69-71.02,100.51-12.57,4.9-26.25,7.59-40.58,7.59-7.8,0-15.39-.9-22.76-2.32-8.09-1.56-16.63-2.69-23.31-2.69-13.34,0-19.28,4.48.56,18.93,12.64,9.2,27.21,15.75,42.54,20.32,13.8,4.11,28.41,6.31,43.54,6.31,50.79,0,95.73-24.84,123.38-63,5.09-7.02,9.6-14.46,13.47-22.3,9.06-18.47,14.47-39.09,15.29-60.89.04-1.04.14-7.37.11-8.05-.9-17.43-12.79-31.97-28.87-36.8-3.69-1.11-7.63-1.72-11.68-1.72h0Z"/>
  </g>
</svg>