<?xml version="1.0" encoding="UTF-8"?>
<svg id="Alt._Rev" data-name="Alt. Rev" xmlns="http://www.w3.org/2000/svg" viewBox="0 0 1024 1024">
  <defs>
    <style>
      .cls-1 {
        fill: #e3f1ff;
        stroke-width: 0px;
      }
    </style>
  </defs>
  <path class="cls-1" d="M790.61,113.05l178.16,224.03-125.56,543.65c-4.11,17.79-19.73,30.22-37.99,30.22H90.03c-16.36,0-26.14-9.22-30.51-14.72-4.37-5.5-11.16-17.1-7.48-33.04L218.22,143.27c4.11-17.79,19.73-30.22,37.99-30.22h534.4M815.21,62.05H256.21c-41.9,0-78.26,28.92-87.68,69.75L2.34,851.72c-13.02,56.39,29.81,110.23,87.68,110.23h715.2c41.9,0,78.25-28.92,87.68-69.74l131.09-567.62L815.21,62.05h0Z"/>
  <path class="cls-1" d="M718.4,785.55c-5.54,0-10.46-1.65-15.05-5.04-4.85-3.58-8.86-8.7-11.92-15.22l-51.85-122.94h-259.2l-51.21,124.25-.1.29c-2.06,6.17-5.27,10.71-9.8,13.87-4.64,3.22-9.63,4.79-15.26,4.79-8.8,0-15.1-2.01-19.23-6.16-4.16-4.15-6.17-9.92-6.17-17.64,0-.57.1-2.94,1.31-10.31l203.56-493.34c3.06-6.98,7.11-12.12,12.39-15.71,3.91-2.66,8.16-3.95,12.98-3.95,1.17,0,2.4.08,3.65.23l.55.07h.56c6.24,0,11.67,1.6,16.61,4.89,4.72,3.15,8.01,7.66,10.05,13.76l.1.31,203.19,487.98c1.22,3.78,1.84,7.83,1.84,12.06,0,8.2-2.63,14.71-8.04,19.91-5.51,5.31-11.71,7.89-18.96,7.89ZM403.33,587.55h213.39l-107.15-256.43-106.23,256.43Z"/>
</svg>